<svg xmlns="http://www.w3.org/2000/svg" viewBox="0 0 384 512" fill="white">
<path d="M318.7 268.7c-.2-36.7 16.4-64.4 50.4-85.1-19-27.1-47.7-42-85.5-44.9-35.9-2.8-75.2 20.9-89.6 20.9-15.2 0-50-19.9-77.2-19.4-56.4.9-116.3 44.8-116.3 136.4 0 27.1 5 55.1 15 84.1 13.3 38.2 61.4 131.9 111.6 130.4 26.3-.6 44.9-18.7 79.1-18.7 33.2 0 50.4 18.7 79.7 18.7 50.7-.7 94.3-85.9 107-124.2-72.5-34.2-74.2-96.2-74.2-98.2zM255.1 95.2c27.5-32.6 24.9-62.3 24.1-73.2-24.3 1.4-52.4 16.6-68.4 35.2-17.6 20.2-27.9 45.2-25.7 73 26.2 2 52.4-11.3 70-35z"></path>
</svg>